<svg xmlns="http://www.w3.org/2000/svg" viewBox="0 0 150 150"><defs><style>.cls-1{fill:#5d6ae9;}.cls-2{fill:#586970;}</style></defs><title>Recurso 351</title><g id="Capa_2" data-name="Capa 2"><g id="Capa_1-2" data-name="Capa 1"><path class="cls-1" d="M63.29,83.56a2.68,2.68,0,0,1-3.84,0,2.76,2.76,0,0,1,0-3.88,2.68,2.68,0,0,1,3.84,0A2.76,2.76,0,0,1,63.29,83.56Z"/><path class="cls-1" d="M22.36,70.9a2.7,2.7,0,0,1-3.84,0,2.78,2.78,0,0,1,0-3.89,2.7,2.7,0,0,1,3.84,0A2.78,2.78,0,0,1,22.36,70.9Z"/><path class="cls-1" d="M30.76,79.41a2.68,2.68,0,0,1-3.84,0,2.76,2.76,0,0,1,0-3.88,2.68,2.68,0,0,1,3.84,0A2.76,2.76,0,0,1,30.76,79.41Z"/><path class="cls-1" d="M19.64,100.13a2.68,2.68,0,0,1-3.84,0,2.76,2.76,0,0,1,0-3.88,2.68,2.68,0,0,1,3.84,0A2.76,2.76,0,0,1,19.64,100.13Z"/><path class="cls-1" d="M27.86,98.73a2.7,2.7,0,0,1-3.84,0,2.78,2.78,0,0,1,0-3.89,2.68,2.68,0,0,1,3.84,0A2.78,2.78,0,0,1,27.86,98.73Z"/><path class="cls-1" d="M52.55,78.18a2.7,2.7,0,0,1-3.84,0,2.78,2.78,0,0,1,0-3.89,2.7,2.7,0,0,1,3.84,0A2.78,2.78,0,0,1,52.55,78.18Z"/><path class="cls-1" d="M86.51,26.43a2.68,2.68,0,0,1-3.84,0,2.78,2.78,0,0,1,0-3.89,2.7,2.7,0,0,1,3.84,0A2.78,2.78,0,0,1,86.51,26.43Z"/><ellipse class="cls-1" cx="74.49" cy="113.06" rx="2.72" ry="2.75"/><path class="cls-1" d="M34.68,119.29a2.74,2.74,0,0,1-1.66-3.5,2.71,2.71,0,0,1,3.46-1.69,2.77,2.77,0,0,1,1.66,3.51A2.7,2.7,0,0,1,34.68,119.29Z"/><path class="cls-1" d="M45,105.15a2.76,2.76,0,0,1-1.66-3.5A2.7,2.7,0,0,1,46.82,100a2.75,2.75,0,0,1,1.66,3.5A2.71,2.71,0,0,1,45,105.15Z"/><path class="cls-1" d="M27.94,56.89a2.77,2.77,0,0,1-1.66-3.51,2.71,2.71,0,0,1,3.46-1.68,2.75,2.75,0,0,1,1.66,3.51A2.71,2.71,0,0,1,27.94,56.89Z"/><path class="cls-1" d="M61.14,30a2.75,2.75,0,0,1-1.66-3.51,2.71,2.71,0,0,1,3.46-1.68,2.77,2.77,0,0,1,1.66,3.51A2.71,2.71,0,0,1,61.14,30Z"/><path class="cls-1" d="M39.52,23.59a2.77,2.77,0,0,1-1.67-3.51,2.72,2.72,0,0,1,3.47-1.68A2.78,2.78,0,0,1,43,21.91,2.7,2.7,0,0,1,39.52,23.59Z"/><path class="cls-1" d="M76.12,61.54A2.76,2.76,0,0,1,74.46,58a2.71,2.71,0,0,1,3.46-1.68,2.76,2.76,0,0,1,1.66,3.51A2.71,2.71,0,0,1,76.12,61.54Z"/><path class="cls-1" d="M41.2,67a2.76,2.76,0,0,1-1.66-3.51A2.71,2.71,0,0,1,43,61.85a2.75,2.75,0,0,1,1.66,3.51A2.71,2.71,0,0,1,41.2,67Z"/><path class="cls-1" d="M46.27,90.44a2.76,2.76,0,0,1-.16-3.88A2.69,2.69,0,0,1,50,86.4a2.77,2.77,0,0,1,.15,3.88A2.68,2.68,0,0,1,46.27,90.44Z"/><path class="cls-1" d="M54.77,114.56a2.76,2.76,0,0,1-.16-3.88,2.69,2.69,0,0,1,3.84-.16,2.78,2.78,0,0,1,.15,3.89A2.69,2.69,0,0,1,54.77,114.56Z"/><path class="cls-1" d="M57.48,127.8a2.77,2.77,0,0,1-.15-3.88,2.68,2.68,0,0,1,3.83-.16,2.77,2.77,0,0,1,.16,3.88A2.69,2.69,0,0,1,57.48,127.8Z"/><path class="cls-1" d="M57.77,67.91a2.76,2.76,0,0,1-1.26,3.67,2.7,2.7,0,0,1-3.63-1.28,2.77,2.77,0,0,1,1.26-3.67A2.7,2.7,0,0,1,57.77,67.91Z"/><path class="cls-1" d="M36.78,75.77A2.71,2.71,0,0,1,39.9,78a2.72,2.72,0,1,1-3.12-2.26Z"/><path class="cls-1" d="M18.72,122.69A2.72,2.72,0,0,1,21.84,125a2.76,2.76,0,0,1-2.24,3.17,2.75,2.75,0,0,1-.88-5.43Z"/><path class="cls-1" d="M8.8,98.38a2.75,2.75,0,1,1-2.23,3.16A2.72,2.72,0,0,1,8.8,98.38Z"/><path class="cls-1" d="M33.71,98.38a2.75,2.75,0,1,1-2.23,3.16A2.72,2.72,0,0,1,33.71,98.38Z"/><path class="cls-1" d="M26.45,125.75a2.75,2.75,0,1,1-2.23,3.16A2.74,2.74,0,0,1,26.45,125.75Z"/><path class="cls-1" d="M29.59,64.11a2.75,2.75,0,1,1-2.23,3.16A2.72,2.72,0,0,1,29.59,64.11Z"/><path class="cls-1" d="M23.51,83.44a2.75,2.75,0,1,1-2.23,3.17A2.74,2.74,0,0,1,23.51,83.44Z"/><path class="cls-1" d="M82.76,38.55a2.77,2.77,0,0,1-1.27,3.67,2.69,2.69,0,0,1-3.62-1.28,2.76,2.76,0,0,1,1.26-3.67A2.71,2.71,0,0,1,82.76,38.55Z"/><path class="cls-1" d="M18.89,28.92a2.77,2.77,0,0,1-1.26,3.67A2.7,2.7,0,0,1,14,31.31a2.77,2.77,0,0,1,1.26-3.67A2.71,2.71,0,0,1,18.89,28.92Z"/><path class="cls-1" d="M27.4,34.56a2.77,2.77,0,0,1-1.26,3.67A2.71,2.71,0,0,1,22.51,37a2.77,2.77,0,0,1,1.26-3.67A2.7,2.7,0,0,1,27.4,34.56Z"/><path class="cls-1" d="M14.41,57.75a2.77,2.77,0,0,1-1.27,3.67,2.69,2.69,0,0,1-3.62-1.28,2.75,2.75,0,0,1,1.26-3.67A2.71,2.71,0,0,1,14.41,57.75Z"/><path class="cls-1" d="M41.83,34.56a2.77,2.77,0,0,1-1.26,3.67A2.71,2.71,0,0,1,36.94,37a2.76,2.76,0,0,1,1.26-3.67A2.7,2.7,0,0,1,41.83,34.56Z"/><path class="cls-2" d="M149.26,150H.74a.74.74,0,0,1-.74-.74V.74A.74.74,0,0,1,.74,0a.75.75,0,0,1,.75.74V148.51H149.26a.75.75,0,0,1,.74.75A.74.74,0,0,1,149.26,150Z"/><path class="cls-1" d="M142.5,137.88a2.7,2.7,0,0,1-3.66,1.17,2.77,2.77,0,0,1-1.16-3.71,2.71,2.71,0,0,1,3.67-1.16A2.77,2.77,0,0,1,142.5,137.88Z"/><path class="cls-1" d="M70.48,76a2.7,2.7,0,0,1-3.67,1.16,2.76,2.76,0,0,1-1.15-3.7,2.69,2.69,0,0,1,3.66-1.17A2.77,2.77,0,0,1,70.48,76Z"/><path class="cls-1" d="M53,55.56a2.69,2.69,0,0,1-3.66,1.17A2.77,2.77,0,0,1,48.22,53a2.7,2.7,0,0,1,3.66-1.17A2.76,2.76,0,0,1,53,55.56Z"/><path class="cls-1" d="M55.75,43.76a2.69,2.69,0,0,1-3.66,1.17,2.76,2.76,0,0,1-1.15-3.71,2.7,2.7,0,0,1,3.66-1.17A2.77,2.77,0,0,1,55.75,43.76Z"/><path class="cls-1" d="M124,44.88A2.68,2.68,0,0,1,120.33,46a2.75,2.75,0,0,1-1.15-3.7,2.69,2.69,0,0,1,3.66-1.17A2.77,2.77,0,0,1,124,44.88Z"/><path class="cls-1" d="M137.9,10.33a2.69,2.69,0,0,1-3.66,1.17,2.77,2.77,0,0,1-1.16-3.71,2.7,2.7,0,0,1,3.66-1.16A2.75,2.75,0,0,1,137.9,10.33Z"/><path class="cls-1" d="M132.27,125.19a2.71,2.71,0,0,1-3.67,1.17,2.77,2.77,0,0,1-1.15-3.71,2.7,2.7,0,0,1,3.66-1.17A2.78,2.78,0,0,1,132.27,125.19Z"/><path class="cls-1" d="M70.07,124.58a2.69,2.69,0,0,1-3.66,1.17A2.76,2.76,0,0,1,65.26,122a2.69,2.69,0,0,1,3.66-1.17A2.76,2.76,0,0,1,70.07,124.58Z"/><path class="cls-1" d="M113.86,109.42a2.71,2.71,0,0,1-3.67,1.16,2.78,2.78,0,0,1-1.15-3.71,2.7,2.7,0,0,1,3.67-1.16A2.77,2.77,0,0,1,113.86,109.42Z"/><path class="cls-1" d="M47.79,119.45a2.75,2.75,0,1,1,2.81-2.66A2.75,2.75,0,0,1,47.79,119.45Z"/><path class="cls-1" d="M20,138.61a2.77,2.77,0,0,1-1.3-3.66,2.7,2.7,0,0,1,3.61-1.32,2.76,2.76,0,0,1,1.3,3.66A2.7,2.7,0,0,1,20,138.61Z"/><path class="cls-1" d="M101.91,131a2.76,2.76,0,0,1-1.3-3.66,2.7,2.7,0,0,1,3.61-1.32,2.76,2.76,0,0,1,1.3,3.66A2.7,2.7,0,0,1,101.91,131Z"/><path class="cls-1" d="M116.42,136.61a2.75,2.75,0,1,1,2.55-2.9A2.73,2.73,0,0,1,116.42,136.61Z"/><path class="cls-1" d="M126.88,96a2.75,2.75,0,0,1-1.77,3.44,2.71,2.71,0,0,1-3.41-1.79,2.76,2.76,0,0,1,1.78-3.45A2.7,2.7,0,0,1,126.88,96Z"/><path class="cls-1" d="M121.85,113.32a2.69,2.69,0,0,1-3.81-.46,2.78,2.78,0,0,1,.46-3.86,2.69,2.69,0,0,1,3.81.46A2.77,2.77,0,0,1,121.85,113.32Z"/><path class="cls-1" d="M109.5,115.05a2.68,2.68,0,0,1,3.64,1.21A2.75,2.75,0,0,1,112,120a2.69,2.69,0,0,1-3.65-1.21A2.76,2.76,0,0,1,109.5,115.05Z"/><path class="cls-1" d="M56.47,91.27a2.71,2.71,0,0,1,3.65,1.21,2.78,2.78,0,0,1-1.2,3.7A2.71,2.71,0,0,1,55.27,95,2.78,2.78,0,0,1,56.47,91.27Z"/><path class="cls-1" d="M39.56,126.88a2.68,2.68,0,0,1,3.64,1.21A2.75,2.75,0,0,1,42,131.78a2.69,2.69,0,0,1-3.65-1.21A2.76,2.76,0,0,1,39.56,126.88Z"/><path class="cls-1" d="M22.9,106.7a2.69,2.69,0,0,1,3.64,1.22,2.76,2.76,0,0,1-1.19,3.69,2.69,2.69,0,0,1-3.65-1.21A2.77,2.77,0,0,1,22.9,106.7Z"/><path class="cls-1" d="M92.64,106.75A2.71,2.71,0,0,1,96.29,108a2.77,2.77,0,0,1-1.2,3.7,2.7,2.7,0,0,1-3.64-1.21A2.77,2.77,0,0,1,92.64,106.75Z"/><path class="cls-1" d="M32.5,88a2.71,2.71,0,0,1,3.65,1.21,2.77,2.77,0,0,1-1.2,3.7,2.71,2.71,0,0,1-3.65-1.21A2.78,2.78,0,0,1,32.5,88Z"/></g></g></svg>